<svg width="250" height="38.872340420135416" xmlns="http://www.w3.org/2000/svg">
 <g class="currentLayer">
  <title>Layer 1</title>
  <g id="Layer_1_1_"/>
  <g id="svg_1">
   <path id="svg_2" d="m5.076,19.062c0,1.285 -1.041,2.33 -2.327,2.33c-1.289,0 -2.33,-1.043 -2.33,-2.33c0,-1.286 1.041,-2.332 2.33,-2.332c1.286,0.002 2.327,1.047 2.327,2.332" fill="#059B16"/>
   <path id="svg_3" d="m20.853,2.976c0,1.285 -1.041,2.329 -2.327,2.329c-1.288,0 -2.331,-1.044 -2.331,-2.329c0,-1.283 1.043,-2.33 2.331,-2.33c1.286,0 2.327,1.046 2.327,2.33" fill="#059B16"/>
   <path id="svg_4" d="m20.981,33.425c0,1.285 -1.043,2.33 -2.333,2.33c-1.284,0 -2.327,-1.045 -2.327,-2.33c0,-1.286 1.043,-2.327 2.327,-2.327c1.29,0 2.333,1.041 2.333,2.327" fill="#059B16"/>
   <path id="svg_5" d="m36.091,17.971c0,1.292 -1.042,2.33 -2.33,2.33c-1.283,0 -2.329,-1.039 -2.329,-2.33c0,-1.287 1.046,-2.327 2.329,-2.327c1.288,0.001 2.33,1.041 2.33,2.327" fill="#059B16"/>
   <path id="svg_6" d="m33.931,26.116c0,1.286 -1.04,2.329 -2.33,2.329c-1.281,0 -2.325,-1.043 -2.325,-2.329s1.044,-2.331 2.325,-2.331c1.291,0 2.33,1.045 2.33,2.331" fill="#059B16"/>
   <path id="svg_7" d="m7.626,25.843c0,1.288 -1.042,2.326 -2.329,2.326c-1.286,0 -2.329,-1.038 -2.329,-2.326c0,-1.286 1.043,-2.327 2.329,-2.327c1.286,0 2.329,1.041 2.329,2.327" fill="#059B16"/>
   <path id="svg_8" d="m34.286,10.319c0,1.289 -1.046,2.329 -2.33,2.329c-1.286,0 -2.331,-1.041 -2.331,-2.329c0,-1.287 1.045,-2.331 2.331,-2.331c1.284,0.001 2.33,1.045 2.33,2.331" fill="#059B16"/>
   <path id="svg_9" d="m7.041,10.671c0,1.285 -1.042,2.328 -2.33,2.328c-1.282,0 -2.33,-1.043 -2.33,-2.328c0,-1.289 1.048,-2.329 2.33,-2.329c1.288,0 2.33,1.04 2.33,2.329" fill="#059B16"/>
   <path id="svg_10" d="m28.625,4.776c0,1.286 -1.046,2.329 -2.332,2.329s-2.329,-1.042 -2.329,-2.329c0,-1.288 1.043,-2.327 2.329,-2.327s2.332,1.039 2.332,2.327" fill="#059B16"/>
   <path id="svg_11" d="m13.053,4.855c0,1.288 -1.038,2.328 -2.326,2.328c-1.289,0 -2.33,-1.041 -2.33,-2.328s1.041,-2.331 2.33,-2.331c1.288,0.001 2.326,1.045 2.326,2.331" fill="#059B16"/>
   <path id="svg_12" d="m28.543,31.336c0,1.284 -1.041,2.327 -2.33,2.327c-1.286,0 -2.326,-1.043 -2.326,-2.327c0,-1.287 1.041,-2.332 2.326,-2.332c1.289,0 2.33,1.045 2.33,2.332" fill="#059B16"/>
   <path id="svg_13" d="m12.942,31.255c0,1.286 -1.043,2.328 -2.331,2.328c-1.284,0 -2.328,-1.042 -2.328,-2.328c0,-1.287 1.044,-2.328 2.328,-2.328c1.288,0 2.331,1.041 2.331,2.328" fill="#059B16"/>
   <path id="svg_14" d="m8.865,20.729c0.249,0.918 -0.298,1.871 -1.219,2.114c-0.924,0.248 -1.873,-0.297 -2.117,-1.221c-0.249,-0.922 0.297,-1.87 1.219,-2.116c0.92,-0.248 1.872,0.297 2.117,1.223" fill="#059B16"/>
   <path id="svg_15" d="m17.264,6.813c0.249,0.922 -0.301,1.871 -1.223,2.116c-0.92,0.248 -1.87,-0.301 -2.118,-1.222c-0.248,-0.922 0.3,-1.871 1.22,-2.118c0.927,-0.247 1.874,0.303 2.121,1.224" fill="#059B16"/>
   <path id="svg_16" d="m23.206,28.623c0.248,0.921 -0.302,1.872 -1.226,2.115c-0.919,0.246 -1.867,-0.299 -2.114,-1.223c-0.249,-0.922 0.301,-1.871 1.223,-2.115c0.923,-0.246 1.868,0.3 2.117,1.223" fill="#059B16"/>
   <path id="svg_17" d="m31.074,14.639c0.245,0.92 -0.3,1.87 -1.224,2.115c-0.923,0.251 -1.872,-0.298 -2.118,-1.219c-0.246,-0.923 0.301,-1.872 1.222,-2.123c0.924,-0.244 1.87,0.306 2.12,1.227" fill="#059B16"/>
   <path id="svg_18" d="m31.088,20.893c0.248,0.922 -0.3,1.873 -1.222,2.117c-0.92,0.247 -1.869,-0.299 -2.117,-1.222c-0.25,-0.923 0.301,-1.872 1.22,-2.119c0.926,-0.247 1.874,0.302 2.119,1.224" fill="#059B16"/>
   <path id="svg_19" d="m12.173,25.751c0.248,0.924 -0.301,1.87 -1.225,2.117c-0.92,0.245 -1.868,-0.3 -2.114,-1.222c-0.249,-0.926 0.297,-1.871 1.221,-2.116c0.922,-0.251 1.87,0.302 2.118,1.221" fill="#059B16"/>
   <path id="svg_20" d="m28.304,9.497c0.251,0.922 -0.301,1.871 -1.221,2.119c-0.924,0.247 -1.868,-0.301 -2.117,-1.223c-0.248,-0.92 0.303,-1.871 1.221,-2.116c0.923,-0.25 1.872,0.297 2.117,1.22" fill="#059B16"/>
   <path id="svg_21" d="m8.837,14.982c0.245,0.922 -0.299,1.872 -1.221,2.119c-0.924,0.246 -1.87,-0.3 -2.118,-1.223s0.3,-1.872 1.222,-2.116c0.924,-0.249 1.868,0.298 2.117,1.22" fill="#059B16"/>
   <path id="svg_22" d="m23.18,6.61c0.247,0.921 -0.301,1.87 -1.222,2.118c-0.923,0.247 -1.871,-0.298 -2.12,-1.223c-0.246,-0.921 0.298,-1.873 1.228,-2.116c0.921,-0.248 1.866,0.3 2.114,1.221" fill="#059B16"/>
   <path id="svg_23" d="m12.034,9.657c0.25,0.923 -0.301,1.871 -1.221,2.117c-0.925,0.249 -1.872,-0.3 -2.119,-1.222c-0.248,-0.922 0.3,-1.869 1.221,-2.117c0.923,-0.247 1.869,0.301 2.119,1.222" fill="#059B16"/>
   <path id="svg_24" d="m28.228,25.668c0.248,0.925 -0.3,1.87 -1.224,2.121c-0.924,0.243 -1.87,-0.303 -2.118,-1.229c-0.247,-0.92 0.302,-1.869 1.226,-2.11c0.919,-0.249 1.867,0.3 2.116,1.218" fill="#059B16"/>
   <path id="svg_25" d="m17.02,28.607c0.251,0.925 -0.294,1.873 -1.221,2.121c-0.923,0.246 -1.866,-0.303 -2.114,-1.226c-0.252,-0.92 0.297,-1.867 1.221,-2.118c0.923,-0.245 1.871,0.305 2.114,1.223" fill="#059B16"/>
   <path id="svg_26" d="m12.821,21.314c0.326,0.555 0.133,1.27 -0.424,1.588c-0.556,0.32 -1.269,0.134 -1.59,-0.428c-0.322,-0.555 -0.129,-1.266 0.426,-1.588c0.557,-0.322 1.271,-0.132 1.588,0.428" fill="#059B16"/>
   <path id="svg_27" d="m15.86,10.795c0.323,0.558 0.131,1.273 -0.423,1.591c-0.558,0.318 -1.271,0.131 -1.59,-0.424c-0.323,-0.559 -0.133,-1.27 0.424,-1.596c0.557,-0.315 1.269,-0.125 1.589,0.429" fill="#059B16"/>
   <path id="svg_28" d="m23.528,23.949c0.322,0.557 0.13,1.271 -0.427,1.591c-0.558,0.321 -1.271,0.13 -1.592,-0.427c-0.323,-0.557 -0.13,-1.269 0.429,-1.588c0.558,-0.324 1.266,-0.134 1.59,0.424" fill="#059B16"/>
   <path id="svg_29" d="m26.21,13.481c0.318,0.557 0.128,1.268 -0.427,1.588c-0.557,0.326 -1.271,0.131 -1.59,-0.424c-0.321,-0.558 -0.133,-1.27 0.424,-1.593c0.559,-0.32 1.272,-0.13 1.593,0.429" fill="#059B16"/>
   <path id="svg_30" d="m27.308,17.544c0.324,0.557 0.133,1.271 -0.423,1.592c-0.559,0.32 -1.27,0.132 -1.593,-0.427c-0.318,-0.556 -0.131,-1.267 0.427,-1.591c0.556,-0.32 1.271,-0.129 1.589,0.426" fill="#059B16"/>
   <path id="svg_31" d="m15.852,24.004c0.322,0.559 0.131,1.271 -0.43,1.592c-0.551,0.32 -1.267,0.131 -1.587,-0.427c-0.321,-0.558 -0.132,-1.269 0.424,-1.592c0.559,-0.32 1.272,-0.13 1.593,0.427" fill="#059B16"/>
   <path id="svg_32" d="m23.511,10.619c0.322,0.556 0.135,1.271 -0.423,1.592c-0.557,0.319 -1.268,0.129 -1.592,-0.427c-0.322,-0.556 -0.131,-1.27 0.425,-1.591c0.558,-0.322 1.268,-0.131 1.59,0.426" fill="#059B16"/>
   <path id="svg_33" d="m11.805,17.578c0.321,0.562 0.131,1.271 -0.427,1.592c-0.559,0.323 -1.27,0.132 -1.592,-0.427c-0.321,-0.557 -0.13,-1.266 0.428,-1.586c0.555,-0.323 1.268,-0.132 1.591,0.421" fill="#059B16"/>
   <path id="svg_34" d="m19.677,9.633c0.32,0.561 0.131,1.271 -0.429,1.594c-0.556,0.32 -1.269,0.13 -1.587,-0.429c-0.324,-0.557 -0.134,-1.267 0.423,-1.588c0.558,-0.325 1.271,-0.13 1.593,0.423" fill="#059B16"/>
   <path id="svg_35" d="m12.954,13.562c0.322,0.556 0.13,1.268 -0.424,1.589c-0.559,0.32 -1.269,0.128 -1.591,-0.428c-0.323,-0.555 -0.132,-1.268 0.425,-1.589c0.557,-0.322 1.268,-0.133 1.59,0.428" fill="#059B16"/>
   <path id="svg_36" d="m26.283,21.152c0.322,0.561 0.13,1.271 -0.428,1.589c-0.561,0.325 -1.269,0.132 -1.59,-0.421c-0.324,-0.561 -0.131,-1.272 0.423,-1.598c0.561,-0.316 1.272,-0.122 1.595,0.43" fill="#059B16"/>
   <path id="svg_37" d="m19.503,25.02c0.322,0.561 0.132,1.271 -0.425,1.592c-0.554,0.322 -1.269,0.128 -1.591,-0.424c-0.32,-0.561 -0.132,-1.271 0.426,-1.595c0.558,-0.318 1.27,-0.131 1.59,0.427" fill="#059B16"/>
  </g>
  <g id="svg_38">
   <path id="svg_39" d="m5.055,18.99c0,1.285 -1.042,2.328 -2.327,2.328c-1.289,0 -2.329,-1.043 -2.329,-2.328c0,-1.286 1.041,-2.332 2.329,-2.332c1.285,0.001 2.327,1.046 2.327,2.332" fill="#059B16"/>
   <path id="svg_40" d="m20.832,2.902c0,1.285 -1.042,2.328 -2.327,2.328c-1.288,0 -2.331,-1.043 -2.331,-2.328c0,-1.283 1.043,-2.33 2.331,-2.33c1.285,0.001 2.327,1.047 2.327,2.33" fill="#059B16"/>
   <path id="svg_41" d="m20.96,33.352c0,1.285 -1.043,2.33 -2.332,2.33c-1.284,0 -2.328,-1.045 -2.328,-2.33s1.043,-2.328 2.328,-2.328c1.289,-0.001 2.332,1.042 2.332,2.328" fill="#059B16"/>
   <path id="svg_42" d="m36.07,17.898c0,1.292 -1.042,2.331 -2.33,2.331c-1.283,0 -2.329,-1.039 -2.329,-2.331c0,-1.287 1.046,-2.327 2.329,-2.327c1.288,0 2.33,1.04 2.33,2.327" fill="#059B16"/>
   <path id="svg_43" d="m33.91,26.042c0,1.287 -1.039,2.33 -2.33,2.33c-1.281,0 -2.325,-1.043 -2.325,-2.33c0,-1.286 1.044,-2.331 2.325,-2.331c1.291,0 2.33,1.045 2.33,2.331" fill="#059B16"/>
   <path id="svg_44" d="m7.604,25.77c0,1.289 -1.042,2.328 -2.329,2.328c-1.286,0 -2.329,-1.039 -2.329,-2.328c0,-1.285 1.043,-2.326 2.329,-2.326c1.287,-0.001 2.329,1.04 2.329,2.326" fill="#059B16"/>
   <path id="svg_45" d="m34.264,10.246c0,1.288 -1.045,2.329 -2.33,2.329c-1.285,0 -2.331,-1.041 -2.331,-2.329c0,-1.287 1.046,-2.331 2.331,-2.331c1.285,0 2.33,1.044 2.33,2.331" fill="#059B16"/>
   <path id="svg_46" d="m7.02,10.598c0,1.284 -1.042,2.328 -2.33,2.328c-1.282,0 -2.329,-1.043 -2.329,-2.328c0,-1.289 1.047,-2.33 2.329,-2.33c1.288,0.001 2.33,1.042 2.33,2.33" fill="#059B16"/>
   <path id="svg_47" d="m28.604,4.703c0,1.286 -1.047,2.329 -2.333,2.329c-1.285,0 -2.329,-1.043 -2.329,-2.329c0,-1.287 1.043,-2.328 2.329,-2.328s2.333,1.041 2.333,2.328" fill="#059B16"/>
   <path id="svg_48" d="m13.032,4.782c0,1.288 -1.038,2.329 -2.326,2.329s-2.33,-1.041 -2.33,-2.329c0,-1.287 1.041,-2.331 2.329,-2.331s2.327,1.044 2.327,2.331" fill="#059B16"/>
   <path id="svg_49" d="m28.521,31.264c0,1.283 -1.041,2.327 -2.33,2.327c-1.286,0 -2.326,-1.044 -2.326,-2.327c0,-1.287 1.041,-2.332 2.326,-2.332c1.29,0 2.33,1.045 2.33,2.332" fill="#059B16"/>
   <path id="svg_50" d="m12.921,31.182c0,1.286 -1.042,2.328 -2.331,2.328c-1.284,0 -2.328,-1.042 -2.328,-2.328c0,-1.287 1.044,-2.328 2.328,-2.328c1.288,0 2.331,1.041 2.331,2.328" fill="#059B16"/>
   <path id="svg_51" d="m8.843,20.655c0.249,0.918 -0.297,1.87 -1.219,2.114c-0.924,0.248 -1.873,-0.297 -2.117,-1.221c-0.25,-0.922 0.297,-1.869 1.219,-2.115c0.921,-0.247 1.873,0.296 2.117,1.222" fill="#059B16"/>
   <path id="svg_52" d="m17.243,6.74c0.248,0.922 -0.301,1.871 -1.224,2.117c-0.92,0.248 -1.869,-0.302 -2.117,-1.222c-0.248,-0.922 0.3,-1.872 1.22,-2.118c0.927,-0.248 1.874,0.301 2.121,1.223" fill="#059B16"/>
   <path id="svg_53" d="m23.185,28.549c0.248,0.921 -0.302,1.872 -1.227,2.115c-0.919,0.248 -1.867,-0.298 -2.114,-1.223c-0.249,-0.922 0.301,-1.871 1.223,-2.114c0.924,-0.246 1.869,0.299 2.118,1.222" fill="#059B16"/>
   <path id="svg_54" d="m31.053,14.565c0.245,0.92 -0.3,1.871 -1.224,2.116c-0.923,0.251 -1.872,-0.298 -2.118,-1.219c-0.245,-0.923 0.302,-1.872 1.222,-2.123c0.923,-0.244 1.87,0.306 2.12,1.226" fill="#059B16"/>
   <path id="svg_55" d="m31.066,20.818c0.249,0.922 -0.3,1.873 -1.222,2.117c-0.92,0.248 -1.869,-0.299 -2.117,-1.222c-0.25,-0.923 0.301,-1.872 1.22,-2.119c0.926,-0.244 1.874,0.304 2.119,1.224" fill="#059B16"/>
   <path id="svg_56" d="m12.152,25.678c0.248,0.924 -0.301,1.871 -1.226,2.117c-0.92,0.245 -1.867,-0.3 -2.114,-1.221c-0.249,-0.926 0.298,-1.871 1.221,-2.117c0.922,-0.25 1.871,0.301 2.119,1.221" fill="#059B16"/>
   <path id="svg_57" d="m28.283,9.423c0.25,0.923 -0.301,1.871 -1.222,2.119c-0.924,0.247 -1.868,-0.3 -2.116,-1.222c-0.248,-0.921 0.302,-1.871 1.221,-2.116c0.922,-0.25 1.871,0.296 2.117,1.219" fill="#059B16"/>
   <path id="svg_58" d="m8.816,14.909c0.244,0.922 -0.299,1.872 -1.222,2.119c-0.924,0.246 -1.87,-0.3 -2.118,-1.223c-0.248,-0.922 0.299,-1.871 1.222,-2.116c0.925,-0.25 1.869,0.298 2.118,1.22" fill="#059B16"/>
   <path id="svg_59" d="m23.159,6.537c0.247,0.922 -0.301,1.87 -1.222,2.117c-0.923,0.247 -1.871,-0.298 -2.12,-1.222c-0.246,-0.922 0.298,-1.874 1.228,-2.117c0.921,-0.248 1.866,0.3 2.114,1.222" fill="#059B16"/>
   <path id="svg_60" d="m12.012,9.584c0.25,0.923 -0.301,1.87 -1.22,2.116c-0.925,0.249 -1.872,-0.3 -2.119,-1.221c-0.248,-0.923 0.3,-1.869 1.221,-2.118c0.923,-0.246 1.869,0.302 2.118,1.223" fill="#059B16"/>
   <path id="svg_61" d="m28.206,25.595c0.248,0.925 -0.3,1.87 -1.224,2.121c-0.924,0.244 -1.869,-0.302 -2.118,-1.228c-0.247,-0.92 0.302,-1.87 1.226,-2.111c0.92,-0.25 1.868,0.299 2.116,1.218" fill="#059B16"/>
   <path id="svg_62" d="m16.999,28.535c0.251,0.924 -0.294,1.873 -1.221,2.12c-0.923,0.245 -1.866,-0.302 -2.114,-1.226c-0.252,-0.92 0.298,-1.867 1.222,-2.117c0.922,-0.246 1.87,0.305 2.113,1.223" fill="#059B16"/>
   <path id="svg_63" d="m12.8,21.241c0.326,0.555 0.133,1.27 -0.424,1.588c-0.555,0.321 -1.268,0.134 -1.589,-0.429c-0.323,-0.553 -0.129,-1.265 0.426,-1.586c0.556,-0.323 1.27,-0.132 1.587,0.427" fill="#059B16"/>
   <path id="svg_64" d="m15.839,10.722c0.323,0.557 0.131,1.273 -0.423,1.59c-0.558,0.319 -1.271,0.132 -1.59,-0.423c-0.323,-0.559 -0.132,-1.27 0.424,-1.596c0.556,-0.315 1.268,-0.126 1.589,0.429" fill="#059B16"/>
   <path id="svg_65" d="m23.507,23.875c0.322,0.557 0.13,1.271 -0.427,1.591c-0.558,0.322 -1.271,0.13 -1.592,-0.427c-0.323,-0.557 -0.129,-1.268 0.43,-1.588c0.556,-0.323 1.265,-0.135 1.589,0.424" fill="#059B16"/>
   <path id="svg_66" d="m26.189,13.408c0.318,0.557 0.128,1.268 -0.427,1.589c-0.557,0.326 -1.271,0.131 -1.59,-0.424c-0.321,-0.558 -0.133,-1.271 0.425,-1.593c0.557,-0.321 1.271,-0.131 1.592,0.428" fill="#059B16"/>
   <path id="svg_67" d="m27.287,17.47c0.323,0.558 0.133,1.271 -0.423,1.593c-0.559,0.32 -1.27,0.131 -1.593,-0.428c-0.318,-0.556 -0.131,-1.268 0.427,-1.59c0.556,-0.32 1.271,-0.129 1.589,0.425" fill="#059B16"/>
   <path id="svg_68" d="m15.831,23.932c0.322,0.56 0.131,1.271 -0.429,1.592c-0.551,0.319 -1.267,0.131 -1.587,-0.426c-0.321,-0.559 -0.132,-1.271 0.423,-1.594c0.559,-0.32 1.272,-0.13 1.593,0.428" fill="#059B16"/>
   <path id="svg_69" d="m23.49,10.545c0.322,0.557 0.134,1.271 -0.423,1.592c-0.557,0.32 -1.268,0.13 -1.593,-0.426c-0.321,-0.557 -0.131,-1.27 0.425,-1.592c0.559,-0.322 1.269,-0.13 1.591,0.426" fill="#059B16"/>
   <path id="svg_70" d="m11.784,17.505c0.321,0.562 0.131,1.271 -0.427,1.593c-0.559,0.322 -1.27,0.131 -1.592,-0.428c-0.321,-0.557 -0.13,-1.266 0.428,-1.586c0.555,-0.323 1.267,-0.132 1.591,0.421" fill="#059B16"/>
   <path id="svg_71" d="m19.656,9.559c0.319,0.561 0.131,1.272 -0.43,1.594c-0.556,0.32 -1.268,0.13 -1.587,-0.429c-0.324,-0.558 -0.133,-1.267 0.423,-1.588c0.559,-0.324 1.272,-0.13 1.594,0.423" fill="#059B16"/>
   <path id="svg_72" d="m12.933,13.489c0.322,0.555 0.13,1.267 -0.424,1.588c-0.559,0.32 -1.269,0.128 -1.591,-0.427c-0.323,-0.555 -0.132,-1.267 0.425,-1.589c0.557,-0.322 1.268,-0.133 1.59,0.428" fill="#059B16"/>
   <path id="svg_73" d="m26.261,21.079c0.322,0.562 0.13,1.272 -0.428,1.589c-0.561,0.326 -1.268,0.132 -1.59,-0.42c-0.325,-0.561 -0.131,-1.271 0.423,-1.598c0.562,-0.317 1.272,-0.125 1.595,0.429" fill="#059B16"/>
   <path id="svg_74" d="m19.482,24.947c0.322,0.56 0.132,1.27 -0.425,1.591c-0.555,0.321 -1.27,0.128 -1.591,-0.424c-0.32,-0.56 -0.132,-1.271 0.426,-1.595c0.558,-0.316 1.27,-0.13 1.59,0.428" fill="#059B16"/>
  </g>
  <g fill="#009900" id="svg_75">
   <path id="svg_76" d="m117.39436,-38.94404l-1.101,-3.479l-5.09,0l-1.062,3.479l-1.375,0l4.206,-13.366l1.631,0l4.206,13.366l-1.415,0zm-1.435,-4.66l-0.628,-2.044c-0.59,-1.965 -1.298,-4.344 -1.553,-5.327l-0.039,0c-0.256,0.963 -0.963,3.341 -1.572,5.327l-0.629,2.044l4.421,0z" fill="#009900"/>
   <path id="svg_77" d="m124.86136,-38.74804c-1.16,0 -2.241,-0.57 -2.732,-1.199l-0.04,0l0,5.13l-1.356,0l0,-13.818l1.18,0l0.079,1.572l0.039,0c0.649,-0.806 1.671,-1.769 3.027,-1.769c2.516,0 3.892,1.809 3.892,5.071c-0.001,3.027 -1.593,5.013 -4.089,5.013zm-0.138,-8.904c-0.904,0 -2.024,0.982 -2.634,1.69l0,4.816c0.531,0.609 1.69,1.217 2.496,1.217c1.671,0 2.968,-1.158 2.968,-3.833c0,-2.731 -1.139,-3.89 -2.83,-3.89z" fill="#009900"/>
   <path id="svg_78" d="m135.11936,-38.74804c-1.16,0 -2.241,-0.57 -2.732,-1.199l-0.039,0l0,5.13l-1.356,0l0,-13.818l1.18,0l0.078,1.572l0.04,0c0.649,-0.806 1.671,-1.769 3.027,-1.769c2.516,0 3.893,1.809 3.893,5.071c-0.003,3.027 -1.595,5.013 -4.091,5.013zm-0.138,-8.904c-0.904,0 -2.024,0.982 -2.634,1.69l0,4.816c0.531,0.609 1.69,1.217 2.496,1.217c1.671,0 2.968,-1.158 2.968,-3.833c0,-2.731 -1.138,-3.89 -2.83,-3.89z" fill="#009900"/>
   <path id="svg_79" d="m146.61436,-38.76904c-3.598,0 -5.699,-2.613 -5.699,-6.82c0,-4.167 2.398,-6.899 5.838,-6.899c1.198,0 1.809,0.177 2.594,0.452l-0.414,1.18c-0.687,-0.216 -1.395,-0.374 -2.18,-0.374c-2.557,0 -4.384,2.261 -4.384,5.641c0,3.44 1.572,5.562 4.245,5.562c1.141,0 1.927,-0.157 2.751,-0.412l0.394,1.219c-1.021,0.276 -1.768,0.451 -3.145,0.451z" fill="#009900"/>
   <path id="svg_80" d="m151.66536,-43.72204c0,2.555 1.317,3.813 3.125,3.813c1.141,0 1.867,-0.179 2.693,-0.413l0.275,1.12c-0.885,0.235 -1.711,0.433 -2.949,0.433c-2.928,0 -4.461,-1.926 -4.461,-5.09c0,-3.066 1.652,-4.973 4.127,-4.973c2.535,0 3.734,1.651 3.734,4.777l0,0.333l-6.544,0zm2.81,-4.029c-1.533,0 -2.594,1.199 -2.771,3.046l5.248,0c0,-1.69 -0.729,-3.046 -2.477,-3.046z" fill="#009900"/>
   <path id="svg_81" d="m166.22736,-38.94404l0,-6.625c0,-1.494 -0.709,-2.083 -1.553,-2.083c-1.24,0 -2.183,0.668 -3.047,1.71l0,6.998l-1.356,0l0,-9.691l1.198,0l0.1,1.553l0.04,0c0.629,-0.944 1.866,-1.75 3.321,-1.75c1.375,0 2.654,0.826 2.654,3.145l0,6.743l-1.357,0z" fill="#009900"/>
   <path id="svg_82" d="m173.26036,-38.76904c-1.315,0 -2.201,-0.688 -2.201,-1.887l0,-6.899l-1.316,0l0,-1.081l1.316,0l0,-1.828l1.378,-0.57l0,2.398l2.356,0l0,1.081l-2.356,0l0,6.664c0,0.61 0.313,0.944 0.981,0.944c0.569,0 1.08,-0.178 1.651,-0.413l0.412,1.062c-0.765,0.334 -1.531,0.529 -2.221,0.529z" fill="#009900"/>
   <path id="svg_83" d="m181.43736,-47.27904c-0.333,-0.197 -0.609,-0.334 -1.041,-0.334c-0.786,0 -1.533,0.806 -1.985,2.162l0,6.506l-1.355,0l0,-9.691l1.179,0l0.06,1.789l0.039,0c0.217,-0.944 1.042,-1.965 2.123,-1.965c0.629,0 1.062,0.216 1.553,0.511l-0.573,1.022z" fill="#009900"/>
   <path id="svg_84" d="m183.89336,-52.40904c0.529,0 0.963,0.433 0.963,0.963c0,0.53 -0.434,0.982 -0.963,0.982c-0.551,0 -1.004,-0.452 -1.004,-0.982c0,-0.53 0.454,-0.963 1.004,-0.963zm-0.709,13.465l0,-9.691l1.356,0l0,9.691l-1.356,0z" fill="#009900"/>
   <path id="svg_85" d="m191.00936,-38.76904c-2.832,0 -4.403,-1.906 -4.403,-5.012c0,-3.105 1.729,-5.032 4.383,-5.032c0.63,0 1.553,0.177 2.123,0.334l-0.274,1.14c-0.473,-0.118 -1.141,-0.275 -1.828,-0.275c-1.809,0 -3.008,1.435 -3.008,3.833c0,2.378 1.102,3.812 3.027,3.812c0.668,0 1.455,-0.197 1.984,-0.394l0.314,1.159c-0.669,0.22 -1.632,0.435 -2.318,0.435z" fill="#009900"/>
   <path id="svg_86" d="m200.87336,-38.94404l-0.235,-1.022l-0.039,0c-1.455,0.865 -1.81,1.219 -2.852,1.219c-1.395,0 -2.928,-0.709 -2.928,-2.967c0,-2.378 1.396,-3.166 2.811,-3.166c0.767,0 1.827,0.354 2.891,0.413l0,-1.219c0,-1.592 -0.649,-1.946 -1.889,-1.946c-0.942,0 -1.611,0.256 -2.851,0.649l-0.354,-1.081c1.121,-0.354 2.184,-0.747 3.422,-0.747c2.477,0 3.046,1.356 3.046,2.948l0,5.208c0,0.532 0.099,1.198 0.196,1.711l-1.218,0zm-0.355,-4.621c-0.924,-0.06 -2.123,-0.294 -2.633,-0.294c-0.983,0 -1.73,0.491 -1.73,2.083c0,1.101 0.57,1.946 1.828,1.946c0.845,0 1.081,-0.258 2.535,-1.062l0,-2.673z" fill="#009900"/>
  </g>
  <text font-style="normal" font-weight="normal" stroke="#000" transform="matrix(1.0520639713804205,0,0,1.0625251132424296,-15.274617940999448,-1.0448541280132275) " xml:space="preserve" text-anchor="start" font-family="Helvetica, Arial, sans-serif" font-size="24" id="svg_87" y="24.936157" x="55.821366" stroke-width="0" fill="#059b16">GroceryCentrica</text>
 </g>

 <g>
  <title>Layer 2</title>
  <rect fill="none" y="0" x="0" height="100%" width="100%" id="backgroundrect"/>
 </g>
 <g>
  <title>background</title>
  <rect fill="none" id="canvas_background" height="40.87234" width="252" y="-1" x="-1"/>
 </g>
</svg>